# xmcd
#
# Track frame offsets: 
#        150
#        33072
#        53124
#        91486
#        149033
#        168385
#        229820
#        250443
#        282247
#        318854
#
# Disc length: 4613 seconds
#
# Revision: 0
# Processed by: cddbd v1.5.2PL0 Copyright (c) Steve Scherf et al.
# Submitted via: ExactAudioCopy v0.99pb3
#
DISCID=8a12030a
DTITLE=Freddie King - Texas In My Blues
DYEAR=2007
DGENRE=Blues
TTITLE0=Mojo Boogie
TTITLE1=Messin' With The Kid
TTITLE2=Boogie Chillun
TTITLE3=Have You Ever Loved A Woman
TTITLE4=Going Down
TTITLE5=Stormy Monday
TTITLE6=Woman Across The River
TTITLE7=Signals Of Love - TV Mama
TTITLE8=Let The Good Times Roll
TTITLE9=Sweet Home Chicago
EXTD=
EXTT0=
EXTT1=
EXTT2=
EXTT3=
EXTT4=
EXTT5=
EXTT6=
EXTT7=
EXTT8=
EXTT9=
PLAYORDER=
